<svg width="189" height="32" viewBox="0 0 189 32" fill="none" xmlns="http://www.w3.org/2000/svg">
<path d="M24.1951 31.4039C23.323 31.5993 22.4319 31.6994 21.5378 31.7022C19.1137 31.7022 17.4727 31.0363 16.6149 29.7044C15.503 27.9771 14.2327 25.852 12.8038 23.3293C10.1745 18.6537 8.21887 15.2986 6.93686 13.2637V22.9478C6.93686 26.548 7.23755 29.2743 7.83893 31.1473C7.01378 31.5149 5.93689 31.7022 4.62924 31.7022C3.2027 31.7022 2.18875 31.4941 1.58737 31.0848C0.985985 30.6756 0.685295 29.9056 0.685295 28.7679C0.685295 28.317 0.706273 27.2834 0.74823 25.6671C0.790187 24.0507 0.811165 22.7535 0.811165 21.7615V13.2637C0.811165 8.7061 0.540777 5.56364 0 3.83633C1.37059 3.44092 2.61298 3.24206 3.72716 3.23975C5.78305 3.23975 7.3238 3.86176 8.34941 5.1058C10.4333 7.68636 13.559 12.6139 17.7268 19.8885L17.6848 13.2637C17.6848 9.38592 17.5846 6.15791 17.3841 3.57966C18.5799 3.37849 19.468 3.28137 20.0414 3.28137C22.8385 3.28137 24.2371 4.10225 24.2371 5.744C24.2371 5.85499 24.1811 7.05509 24.0692 9.33043C23.9573 11.6058 23.9014 13.3053 23.9014 14.4083V21.6713C23.9014 25.5838 23.9993 28.828 24.1951 31.4039Z" fill="white"/>
<path d="M38.5861 10.9668C40.6979 10.9668 42.5254 11.4917 44.0685 12.5415C45.6069 13.589 46.3831 15.1498 46.3831 17.217C46.3831 21.407 43.3575 23.502 37.3064 23.502C36.761 23.502 35.782 23.4742 34.3485 23.4187C34.3485 25.035 34.7564 26.2097 35.5722 26.9427C36.3881 27.6757 37.395 28.0434 38.5931 28.0457C40.7049 28.0457 42.3459 27.3659 43.516 26.0062C44.1431 26.2953 44.6937 26.7252 45.1244 27.2618C45.537 27.789 45.7468 28.3162 45.7468 28.8573C45.7468 29.7036 45.2363 30.3835 44.2293 30.8968C43.2224 31.4101 42.2294 31.7154 41.2714 31.8333C40.3547 31.9419 39.4324 31.9975 38.5092 31.9998C35.3694 31.9998 32.8007 31.1442 30.8031 29.4331C28.8055 27.722 27.8056 25.109 27.8032 21.5943C27.8032 19.2704 28.3533 17.2818 29.4535 15.6285C30.5537 13.9751 31.8963 12.7866 33.4814 12.0628C35.0548 11.3275 36.761 10.9668 38.5861 10.9668ZM38.2435 15.0041C37.2155 15.0041 36.3135 15.462 35.5443 16.3846C34.775 17.3072 34.3765 18.6599 34.3485 20.4427C35.1457 20.3872 35.7121 20.3387 36.0407 20.2971C36.516 20.2282 36.9874 20.1356 37.4533 20.0196C38.0687 19.8808 38.5092 19.6866 38.7819 19.4438C39.0546 19.201 39.2994 18.8611 39.5302 18.4241C39.7609 17.987 39.8728 17.439 39.8728 16.7869C39.8723 16.3327 39.7059 15.894 39.4043 15.5522C39.0826 15.1845 38.698 15.0041 38.2435 15.0041Z" fill="white"/>
<path d="M64.4522 10.967C65.62 10.967 66.4871 11.1473 67.0396 11.5011C67.592 11.8549 67.8717 12.4584 67.8717 13.3047C67.8717 14.9488 67.2214 17.5826 65.9207 21.206C64.6201 24.834 63.2984 27.5325 61.9628 29.3223C60.823 30.9108 59.1377 31.704 56.907 31.7017C55.9528 31.6938 55.0035 31.5656 54.0819 31.3201C53.4526 28.2054 52.3897 24.6375 50.8932 20.6163C49.3967 16.5952 48.1613 14.047 47.187 12.9718C48.5017 11.7855 49.8722 11.1913 51.2988 11.189C52.8372 11.189 53.984 12.0353 54.7253 13.7348C56.1518 17.2172 57.4361 21.1112 58.5783 25.4167C60.6062 20.1238 61.6202 15.9616 61.6202 12.9301C61.6212 12.4878 61.579 12.0464 61.4943 11.6121C62.4191 11.1801 63.43 10.9596 64.4522 10.967Z" fill="white"/>
<path d="M80.8508 10.9668C82.9626 10.9668 84.79 11.4917 86.3331 12.5415C87.8715 13.589 88.6477 15.1498 88.6477 17.217C88.6477 21.407 85.6222 23.502 79.5711 23.502C79.0256 23.502 78.0467 23.4742 76.6131 23.4187C76.6131 25.035 77.021 26.2097 77.8369 26.9427C78.6527 27.6757 79.6597 28.0434 80.8578 28.0457C82.9696 28.0457 84.6106 27.3659 85.7807 26.0062C86.4077 26.2953 86.9583 26.7252 87.389 27.2618C87.8016 27.789 88.0114 28.3162 88.0114 28.8573C88.0114 29.7036 87.5009 30.3835 86.494 30.8968C85.487 31.4101 84.494 31.7154 83.536 31.8333C82.6193 31.9419 81.697 31.9975 80.7738 31.9998C77.6341 31.9998 75.0654 31.1442 73.0678 29.4331C71.0702 27.722 70.0702 25.109 70.0679 21.5943C70.0679 19.2704 70.618 17.2818 71.7182 15.6285C72.8184 13.9751 74.161 12.7866 75.746 12.0628C77.3194 11.3275 79.0256 10.9668 80.8508 10.9668ZM80.5081 15.0041C79.4802 15.0041 78.5781 15.462 77.8089 16.3846C77.0397 17.3072 76.6411 18.6599 76.6131 20.4427C77.4103 20.3872 77.9767 20.3387 78.3054 20.2971C78.7806 20.2282 79.2521 20.1356 79.7179 20.0196C80.3333 19.8808 80.7738 19.6866 81.0466 19.4438C81.3193 19.201 81.564 18.8611 81.7948 18.4241C82.0256 17.987 82.1374 17.439 82.1374 16.7869C82.137 16.3327 81.9705 15.894 81.6689 15.5522C81.3473 15.1845 80.9627 15.0041 80.5081 15.0041Z" fill="white"/>
<path d="M95.0254 0.00754324C96.1093 0.00754324 96.9554 0.194842 97.5498 0.562503C98.1442 0.930164 98.4519 1.65161 98.4519 2.72685C98.4519 2.89333 98.4029 4.14199 98.305 6.46589C98.2071 8.78978 98.1582 10.531 98.1582 11.6894V23.3297C98.1582 27.0688 98.4006 29.6748 98.8854 31.1477C97.7362 31.509 96.5386 31.6961 95.3331 31.7027C93.9905 31.7027 93.0534 31.4668 92.529 31.002C92.0045 30.5373 91.7388 29.8505 91.7388 28.9418C91.7388 28.4909 91.7598 27.4989 91.8017 25.9658C91.8437 24.4396 91.8647 23.191 91.8647 22.2267V10.5032C91.8647 6.45201 91.7644 3.13844 91.564 0.562503C92.6786 0.187564 93.8485 -4.27617e-06 95.0254 0.00754324Z" fill="white"/>
<path d="M117.375 10.9669C118.543 10.9669 119.41 11.1473 119.962 11.5011C120.515 11.8549 120.794 12.4584 120.794 13.3047C120.794 14.9488 120.144 17.5825 118.843 21.206C117.543 24.834 116.221 27.5325 114.885 29.3222C113.746 30.9108 112.06 31.7039 109.83 31.7016C108.875 31.6937 107.926 31.5655 107.005 31.3201C106.375 28.2054 105.312 24.6375 103.816 20.6163C102.319 16.5952 101.084 14.047 100.11 12.9717C101.424 11.7855 102.795 11.1912 104.221 11.1889C105.76 11.1889 106.907 12.0352 107.648 13.7348C109.074 17.2172 110.359 21.1111 111.501 25.4167C113.529 20.1261 114.543 15.9639 114.543 12.9301C114.544 12.4878 114.502 12.0464 114.417 11.6121C115.342 11.1808 116.353 10.9603 117.375 10.9669Z" fill="white"/>
<path d="M133.78 10.9668C135.892 10.9668 137.719 11.4917 139.262 12.5415C140.8 13.589 141.577 15.1498 141.577 17.217C141.577 21.407 138.551 23.502 132.5 23.502C131.955 23.502 130.976 23.4742 129.542 23.4187C129.542 25.035 129.95 26.2097 130.766 26.9427C131.582 27.6757 132.589 28.0434 133.787 28.0457C135.899 28.0457 137.54 27.3659 138.71 26.0062C139.337 26.2953 139.887 26.7252 140.318 27.2618C140.731 27.789 140.94 28.3162 140.94 28.8573C140.94 29.7036 140.43 30.3835 139.423 30.8968C138.416 31.4101 137.423 31.7154 136.465 31.8333C135.548 31.9419 134.626 31.9975 133.703 31.9998C130.563 31.9998 127.994 31.1442 125.997 29.4331C123.999 27.722 122.999 25.109 122.997 21.5943C122.997 19.2704 123.547 17.2818 124.647 15.6285C125.747 13.9751 127.09 12.7866 128.675 12.0628C130.248 11.3275 131.955 10.9668 133.78 10.9668ZM133.437 15.0041C132.409 15.0041 131.507 15.462 130.738 16.3846C129.969 17.3072 129.57 18.6599 129.542 20.4427C130.339 20.3872 130.906 20.3387 131.234 20.2971C131.71 20.2282 132.181 20.1356 132.647 20.0196C133.262 19.8808 133.703 19.6866 133.976 19.4438C134.248 19.201 134.493 18.8611 134.724 18.4241C134.954 17.987 135.066 17.439 135.066 16.7869C135.066 16.3327 134.899 15.894 134.598 15.5522C134.276 15.1845 133.892 15.0041 133.437 15.0041Z" fill="white"/>
<path d="M144.485 11.8199C145.653 11.4523 146.772 11.265 147.828 11.265C149.912 11.265 151.096 12.0997 151.38 13.7692C153.233 11.9309 155.345 11.0106 157.716 11.0083C159.66 11.0083 161.254 11.5633 162.513 12.6662C163.772 13.7692 164.394 15.3439 164.394 17.3834C164.394 17.4389 164.373 18.4586 164.331 20.4426C164.289 22.4266 164.268 23.9273 164.268 24.9447C164.268 27.3796 164.51 29.4468 164.995 31.1464C163.787 31.5122 162.531 31.6992 161.268 31.7014C158.981 31.7014 157.842 30.8412 157.842 29.1069C157.842 28.0872 157.884 26.2119 157.967 23.481C158.051 20.7502 158.093 19.1015 158.093 18.5349C158.093 17.3765 157.856 16.5024 157.387 15.9197C156.919 15.337 156.31 15.0456 155.569 15.0456C154.373 15.0456 153.045 15.7393 151.583 17.1267C151.639 20.7548 151.667 23.37 151.667 24.9864C151.667 27.4767 151.737 29.6619 151.884 31.5279C150.94 31.6112 150.101 31.6528 149.359 31.6528C146.506 31.6528 145.08 30.973 145.08 29.6133C145.08 29.5023 145.115 28.5103 145.185 26.6374C145.255 24.7713 145.29 22.8313 145.29 20.8172C145.297 16.2041 145.028 13.205 144.485 11.8199Z" fill="white"/>
<path d="M167.904 21.5047C167.904 18.5912 168.718 16.1054 170.345 14.0474C171.972 11.9894 174 10.9628 176.429 10.9674C178.03 10.9674 179.638 11.446 181.268 12.4103C181.323 10.5997 181.351 9.1684 181.351 8.11629C181.351 5.02932 181.237 2.50888 181.009 0.55496C182.323 0.187299 183.281 0 183.876 0C186.533 0 187.862 0.906434 187.862 2.7193C187.862 4.39112 187.796 7.60526 187.666 12.3617C187.535 17.1182 187.47 20.3601 187.47 22.0874C187.47 26.5618 187.741 29.6487 188.281 31.3483C186.911 31.6882 185.799 31.8547 184.939 31.8547C183.743 31.8547 182.883 31.6327 182.372 31.1957C181.862 30.7586 181.519 30.1551 181.344 29.3921C180.598 30.1585 179.722 30.7899 178.757 31.2581C177.771 31.7368 176.834 31.9796 175.953 31.9796C173.757 31.9796 171.867 30.9876 170.282 29.0036C168.701 27.0404 167.909 24.5408 167.904 21.5047ZM181.1 15.9412C180.247 15.3169 179.359 15.0047 178.442 15.0047C177.156 15.0047 176.142 15.5643 175.401 16.6835C174.659 17.8003 174.289 19.2849 174.289 21.1232C174.289 23.1626 174.659 24.8414 175.401 26.1594C176.142 27.4774 177.056 28.1365 178.142 28.1365C179.4 28.1365 180.414 27.711 181.184 26.8601C181.128 21.0191 181.1 17.3795 181.1 15.9412Z" fill="white"/>
</svg>
