<svg width="23" height="24" viewBox="0 0 23 24" fill="none" xmlns="http://www.w3.org/2000/svg">
<g opacity="0.4">
<path d="M11.2855 5.95508C8.08515 5.95508 5.48853 8.55153 5.48853 11.7521C5.48853 14.9526 8.08515 17.5491 11.2855 17.5491C14.486 17.5491 17.0825 14.9526 17.0825 11.7521C17.0825 8.55153 14.486 5.95508 11.2855 5.95508ZM11.2855 15.5124C9.20928 15.5124 7.52515 13.8285 7.52515 11.7521C7.52515 9.67566 9.20928 7.9917 11.2855 7.9917C13.3619 7.9917 15.0459 9.67566 15.0459 11.7521C15.0459 13.8285 13.3619 15.5124 11.2855 15.5124Z" fill="#EAEAEA"/>
<path d="M18.6651 5.72589C18.6651 6.47325 18.0591 7.07922 17.3116 7.07922C16.5642 7.07922 15.9583 6.47325 15.9583 5.72589C15.9583 4.97836 16.5642 4.37256 17.3116 4.37256C18.0591 4.37256 18.6651 4.97836 18.6651 5.72589Z" fill="#EAEAEA"/>
<path d="M22.5046 7.10137C22.4518 5.90233 22.2579 5.078 21.9801 4.36371C21.6936 3.60551 21.2527 2.92669 20.6752 2.36239C20.1109 1.7893 19.4276 1.34399 18.6782 1.06192C17.9597 0.784164 17.1397 0.590265 15.9407 0.537399C14.7327 0.480056 14.3492 0.466797 11.2854 0.466797C8.22158 0.466797 7.83809 0.480056 6.63457 0.532922C5.43553 0.585788 4.61121 0.779859 3.89709 1.05745C3.13871 1.34399 2.4599 1.78483 1.89559 2.36239C1.32251 2.92669 0.877365 3.60999 0.595128 4.35941C0.317367 5.07801 0.123468 5.89786 0.0706025 7.09689C0.0132595 8.30489 0 8.68838 0 11.7522C0 14.816 0.0132595 15.1995 0.0661253 16.403C0.118991 17.602 0.313062 18.4264 0.590823 19.1407C0.877365 19.8989 1.32251 20.5777 1.89559 21.142C2.4599 21.7151 3.14319 22.1604 3.89261 22.4424C4.61121 22.7202 5.43106 22.9141 6.63027 22.967C7.83361 23.02 8.21727 23.0331 11.2811 23.0331C14.3449 23.0331 14.7284 23.02 15.9319 22.967C17.1309 22.9141 17.9553 22.7202 18.6694 22.4424C20.1859 21.8561 21.385 20.6571 21.9713 19.1407C22.2489 18.4221 22.443 17.602 22.4959 16.403C22.5487 15.1995 22.562 14.816 22.562 11.7522C22.562 8.68838 22.5575 8.30489 22.5046 7.10137ZM20.4725 16.3148C20.4239 17.4169 20.2388 18.0121 20.0845 18.4088C19.7053 19.3919 18.9251 20.1721 17.942 20.5513C17.5452 20.7056 16.9458 20.8907 15.848 20.9391C14.6578 20.9922 14.3008 21.0053 11.2899 21.0053C8.27892 21.0053 7.91747 20.9922 6.73152 20.9391C5.62943 20.8907 5.0343 20.7056 4.63755 20.5513C4.14833 20.3705 3.70302 20.084 3.34157 19.7093C2.96686 19.3433 2.68031 18.9025 2.4995 18.4133C2.34521 18.0165 2.16009 17.4169 2.1117 16.3193C2.05867 15.1291 2.04558 14.7719 2.04558 11.761C2.04558 8.75003 2.05867 8.38858 2.1117 7.2028C2.16009 6.10071 2.34521 5.50558 2.4995 5.10883C2.68031 4.61943 2.96686 4.17429 3.34604 3.81267C3.7118 3.43796 4.15263 3.15142 4.64203 2.97078C5.03878 2.81648 5.63839 2.63137 6.736 2.58281C7.92625 2.52994 8.2834 2.51668 11.2942 2.51668C14.3096 2.51668 14.6666 2.52994 15.8525 2.58281C16.9546 2.63137 17.5497 2.81648 17.9465 2.97078C18.4357 3.15142 18.881 3.43796 19.2425 3.81267C19.6172 4.1786 19.9037 4.61943 20.0845 5.10883C20.2388 5.50558 20.4239 6.10501 20.4725 7.2028C20.5254 8.39305 20.5386 8.75003 20.5386 11.761C20.5386 14.7719 20.5254 15.1246 20.4725 16.3148Z" fill="#EAEAEA"/>
</g>
</svg>
