<svg width="189" height="32" fill="none" xmlns="http://www.w3.org/2000/svg"><path d="M24.195 31.404c-.872.195-1.763.295-2.657.298-2.424 0-4.065-.666-4.923-1.998-1.112-1.727-2.382-3.852-3.811-6.375-2.63-4.675-4.585-8.03-5.867-10.065v9.684c0 3.6.3 6.326.902 8.2-.825.367-1.902.554-3.21.554-1.426 0-2.44-.208-3.042-.617-.601-.41-.902-1.18-.902-2.317 0-.451.021-1.485.063-3.1.042-1.617.063-2.915.063-3.906v-8.498c0-4.558-.27-7.7-.811-9.428 1.37-.395 2.613-.594 3.727-.596 2.056 0 3.597.622 4.622 1.866 2.084 2.58 5.21 7.508 9.378 14.783l-.042-6.625c0-3.878-.1-7.106-.3-9.684 1.195-.202 2.083-.299 2.656-.299 2.797 0 4.196.821 4.196 2.463 0 .111-.056 1.311-.168 3.586-.112 2.276-.168 3.975-.168 5.078v7.263c0 3.913.098 7.157.294 9.733zm14.391-20.437c2.112 0 3.94.525 5.483 1.574 1.538 1.048 2.314 2.609 2.314 4.676 0 4.19-3.026 6.285-9.077 6.285-.545 0-1.524-.028-2.957-.083 0 1.616.407 2.79 1.223 3.524.816.733 1.823 1.1 3.021 1.103 2.112 0 3.753-.68 4.923-2.04.627.29 1.178.72 1.608 1.256.413.527.623 1.054.623 1.595 0 .847-.51 1.527-1.518 2.04-1.007.513-2 .818-2.958.936-.916.109-1.839.165-2.762.167-3.14 0-5.708-.856-7.706-2.567-1.998-1.711-2.997-4.324-3-7.839 0-2.324.55-4.312 1.65-5.966 1.1-1.653 2.443-2.841 4.028-3.565 1.574-.736 3.28-1.096 5.105-1.096zm-.343 4.037c-1.028 0-1.93.458-2.699 1.38-.769.923-1.167 2.276-1.195 4.059a34.976 34.976 0 001.692-.146c.475-.069.946-.161 1.412-.277.616-.14 1.056-.333 1.329-.576.273-.243.517-.583.748-1.02.23-.437.343-.985.343-1.637 0-.454-.167-.893-.469-1.235-.321-.367-.706-.548-1.16-.548zm26.209-4.037c1.168 0 2.035.18 2.588.534.552.354.832.957.832 1.804 0 1.644-.65 4.278-1.951 7.901-1.3 3.628-2.623 6.326-3.958 8.116-1.14 1.589-2.825 2.382-5.056 2.38a11.34 11.34 0 01-2.825-.382c-.63-3.115-1.692-6.683-3.189-10.704-1.496-4.02-2.732-6.569-3.706-7.644 1.315-1.186 2.685-1.78 4.112-1.783 1.538 0 2.685.846 3.426 2.546 1.427 3.482 2.711 7.376 3.853 11.682 2.028-5.293 3.042-9.455 3.042-12.487a6.805 6.805 0 00-.126-1.318 6.873 6.873 0 012.958-.645zm16.398 0c2.113 0 3.94.525 5.483 1.574 1.538 1.048 2.315 2.609 2.315 4.676 0 4.19-3.026 6.285-9.077 6.285-.545 0-1.524-.028-2.958-.083 0 1.616.408 2.79 1.224 3.524.816.733 1.823 1.1 3.02 1.103 2.113 0 3.754-.68 4.924-2.04.627.29 1.177.72 1.608 1.256.413.527.622 1.054.622 1.595 0 .847-.51 1.527-1.517 2.04-1.007.513-2 .818-2.958.936-.917.109-1.839.165-2.762.167-3.14 0-5.709-.856-7.706-2.567-1.998-1.711-2.998-4.324-3-7.839 0-2.324.55-4.312 1.65-5.966 1.1-1.653 2.443-2.841 4.028-3.565 1.573-.736 3.28-1.096 5.105-1.096zm-.342 4.037c-1.028 0-1.93.458-2.7 1.38-.768.923-1.167 2.276-1.195 4.059a34.996 34.996 0 001.692-.146 14.39 14.39 0 001.413-.277c.615-.14 1.056-.333 1.329-.576.272-.243.517-.583.748-1.02.23-.437.342-.985.342-1.637 0-.454-.166-.893-.468-1.235-.322-.367-.706-.548-1.16-.548zM95.025.008c1.084 0 1.93.187 2.525.555.594.367.902 1.089.902 2.164 0 .166-.05 1.415-.147 3.739-.098 2.324-.147 4.065-.147 5.223v11.64c0 3.74.243 6.346.727 7.819a12.083 12.083 0 01-3.552.555c-1.343 0-2.28-.236-2.804-.701-.525-.465-.79-1.151-.79-2.06 0-.451.02-1.443.063-2.976.042-1.526.063-2.775.063-3.74V10.504c0-4.051-.1-7.365-.301-9.94a10.643 10.643 0 013.461-.555zm22.35 10.959c1.168 0 2.035.18 2.587.534.553.354.832.957.832 1.804 0 1.644-.65 4.277-1.951 7.901-1.3 3.628-2.622 6.326-3.958 8.116-1.139 1.589-2.825 2.382-5.055 2.38a11.335 11.335 0 01-2.825-.382c-.63-3.115-1.693-6.683-3.189-10.704-1.497-4.02-2.732-6.569-3.706-7.644 1.314-1.186 2.685-1.78 4.111-1.783 1.539 0 2.686.846 3.427 2.546 1.426 3.482 2.711 7.376 3.853 11.682 2.028-5.29 3.042-9.453 3.042-12.487a6.782 6.782 0 00-.126-1.318 6.896 6.896 0 012.958-.645zm16.405 0c2.112 0 3.939.525 5.482 1.574 1.538 1.048 2.315 2.609 2.315 4.676 0 4.19-3.026 6.285-9.077 6.285-.545 0-1.524-.028-2.958-.083 0 1.616.408 2.79 1.224 3.524.816.733 1.823 1.1 3.021 1.103 2.112 0 3.753-.68 4.923-2.04.627.29 1.177.72 1.608 1.256.413.527.622 1.054.622 1.595 0 .847-.51 1.527-1.517 2.04-1.007.513-2 .818-2.958.936a23.99 23.99 0 01-2.762.167c-3.14 0-5.709-.856-7.706-2.567-1.998-1.711-2.998-4.324-3-7.839 0-2.324.55-4.312 1.65-5.966 1.1-1.653 2.443-2.841 4.028-3.565 1.573-.736 3.28-1.096 5.105-1.096zm-.343 4.037c-1.028 0-1.93.458-2.699 1.38-.769.923-1.168 2.276-1.196 4.059a34.913 34.913 0 001.692-.146c.476-.069.947-.161 1.413-.277.615-.14 1.056-.333 1.329-.576.272-.243.517-.583.748-1.02.23-.437.342-.985.342-1.637a1.87 1.87 0 00-.468-1.235c-.322-.367-.706-.548-1.161-.548zm11.048-3.184c1.168-.368 2.287-.555 3.343-.555 2.084 0 3.268.835 3.552 2.504 1.853-1.838 3.965-2.758 6.336-2.76 1.944 0 3.538.554 4.797 1.657s1.881 2.678 1.881 4.717c0 .056-.021 1.076-.063 3.06a231.196 231.196 0 00-.063 4.502c0 2.435.242 4.502.727 6.201a12.94 12.94 0 01-3.727.555c-2.287 0-3.426-.86-3.426-2.594 0-1.02.042-2.895.125-5.626.084-2.73.126-4.38.126-4.946 0-1.159-.237-2.033-.706-2.615-.468-.583-1.077-.874-1.818-.874-1.196 0-2.524.693-3.986 2.08.056 3.629.084 6.244.084 7.86 0 2.49.07 4.676.217 6.542-.944.083-1.783.125-2.525.125-2.853 0-4.279-.68-4.279-2.04 0-.11.035-1.103.105-2.976.07-1.866.105-3.806.105-5.82.007-4.613-.262-7.612-.805-8.997zm23.419 9.685c0-2.914.814-5.4 2.441-7.458 1.627-2.058 3.655-3.084 6.084-3.08 1.601 0 3.209.479 4.839 1.443.055-1.81.083-3.242.083-4.294 0-3.087-.114-5.607-.342-7.561C182.323.187 183.281 0 183.876 0c2.657 0 3.986.906 3.986 2.72 0 1.671-.066 4.885-.196 9.642-.131 4.756-.196 7.998-.196 9.725 0 4.475.271 7.562.811 9.261-1.37.34-2.482.507-3.342.507-1.196 0-2.056-.222-2.567-.66-.51-.436-.853-1.04-1.028-1.803a9.236 9.236 0 01-2.587 1.866c-.986.479-1.923.722-2.804.722-2.196 0-4.086-.992-5.671-2.976-1.581-1.964-2.373-4.463-2.378-7.5zM181.1 15.94c-.853-.624-1.741-.936-2.658-.936-1.286 0-2.3.56-3.041 1.678-.742 1.117-1.112 2.602-1.112 4.44 0 2.04.37 3.718 1.112 5.036.741 1.318 1.655 1.978 2.741 1.978 1.258 0 2.272-.426 3.042-1.277-.056-5.84-.084-9.48-.084-10.919z" fill="#fff"/></svg>