<svg width="50" height="49" fill="none" xmlns="http://www.w3.org/2000/svg"><path d="M17.864 26.598v8.039l7.507 4.151m-7.507-12.19l7.507 3.998m-7.507-3.998l2.946-1.586m4.56 13.776l7.426-4.377v-7.813m-7.425 12.19v-8.192m7.425-3.998l-7.79-3.716-2.34 1.131m10.13 2.585l-2.784 1.5m-4.641 2.498l2.744-1.477m-7.305-4.107l7.305 4.107m-7.305-4.107l1.857-.999m5.448 5.106l1.897-1.022m-1.897 1.022v1.856l1.09-1.43.807.504v-1.952m-7.345-4.084l7.345 4.084" stroke="#8A8A8A" stroke-width=".833"/><path d="M10.723 15.563v7.395l7.18 3.82m-7.18-11.215l7.18 3.678m-7.18-3.678l2.818-1.459m4.362 12.674l7.103-4.027v-7.188m-7.103 11.215V19.24m7.103-3.678l-7.103-3.717-2.586 1.339m9.689 2.378l-2.664 1.38m-4.439 2.298l2.625-1.36m-6.987-3.777l6.987 3.778m-6.987-3.778l1.776-.92m5.21 4.698l1.815-.94m-1.814.94v1.708l1.042-1.317.772.465v-1.796m-7.025-3.757l7.025 3.757m17.271-1.378v7.395l-7.141 3.495m7.141-10.89l-7.18 3.678m7.18-3.678l-2.818-1.459m-4.323 12.35l-7.466-3.572v-7.32m7.466 10.891l-.039-7.212m-7.427-3.678l7.427-3.717 2.587 1.339m-10.014 2.378l2.988 1.38m4.44 2.298l-2.626-1.36m6.987-3.777l-6.987 3.778m6.987-3.778l-1.775-.92m-5.212 4.698l-1.814-.94m1.814.94v1.708l-1.042-1.317-.772.465v-1.796m7.026-3.757l-7.026 3.757" stroke="#8A8A8A" stroke-width=".833"/><circle cx="25.144" cy="24.231" r="23.743" stroke="#8A8A8A" stroke-width=".833"/></svg>