<svg width="53" height="53" fill="none" xmlns="http://www.w3.org/2000/svg"><path d="M14.035 19.975v13.068l12.633 6.75M14.035 19.974l12.633 6.5m-12.633-6.5l4.958-2.577m7.675 22.394l12.496-7.115V19.975M26.668 39.792V26.475m12.496-6.5l-12.496-6.568-4.55 2.366m17.046 4.202l-4.686 2.438m-7.81 4.062l4.618-2.402m-12.293-6.675l12.293 6.675m-12.293-6.675l3.124-1.625m9.169 8.3l3.192-1.66m-3.192 1.66v3.018l1.834-2.326 1.358.82v-3.172m-12.36-6.64l12.36 6.64" stroke="#8A8A8A" stroke-width=".888"/><circle cx="26.6" cy="26.6" r="25.313" stroke="#8A8A8A" stroke-width=".888"/></svg>