<svg width="453" height="305" fill="none" xmlns="http://www.w3.org/2000/svg"><g opacity=".8" stroke="#8A8A8A"><path opacity=".45" d="M226.5 304.5c-62.46 0-118.985-17.047-159.88-44.581C25.72 232.383.5 194.395.5 152.5c0-41.895 25.221-79.883 66.12-107.419C107.515 17.547 164.04.5 226.5.5c62.46 0 118.985 17.047 159.88 44.581 40.899 27.536 66.12 65.524 66.12 107.419 0 41.895-25.221 79.883-66.12 107.419-40.895 27.534-97.42 44.581-159.88 44.581z"/><path opacity=".45" d="M226.5 278.5c-51.691 0-98.465-14.136-132.303-36.965C60.357 218.703 39.5 187.216 39.5 152.5c0-34.716 20.856-66.203 54.697-89.035C128.035 40.636 174.81 26.5 226.5 26.5s98.465 14.136 132.303 36.965c33.841 22.832 54.697 54.32 54.697 89.035 0 34.716-20.856 66.203-54.697 89.035C324.965 264.364 278.191 278.5 226.5 278.5z"/><path opacity=".45" d="M226.5 251.5c-40.092 0-76.367-11.002-102.604-28.764C97.656 204.972 81.5 180.484 81.5 153.5s16.156-51.472 42.396-69.236C150.133 66.502 186.408 55.5 226.5 55.5s76.367 11.002 102.604 28.764c26.24 17.764 42.396 42.252 42.396 69.236s-16.156 51.472-42.396 69.236C302.867 240.498 266.592 251.5 226.5 251.5z"/><path opacity=".45" d="M226.5 221.5c-27.942 0-53.217-7.644-71.492-19.978-18.277-12.335-29.508-29.323-29.508-48.022 0-18.699 11.231-35.687 29.508-48.022C173.283 93.144 198.558 85.5 226.5 85.5c27.942 0 53.217 7.644 71.492 19.978 18.277 12.335 29.508 29.323 29.508 48.022 0 18.699-11.231 35.687-29.508 48.022-18.275 12.334-43.55 19.978-71.492 19.978z"/><path opacity=".45" d="M226.5 195.5c-17.45 0-33.225-4.735-44.623-12.363-11.402-7.631-18.377-18.119-18.377-29.637s6.975-22.006 18.377-29.637c11.398-7.628 27.173-12.363 44.623-12.363s33.225 4.735 44.623 12.363c11.402 7.631 18.377 18.119 18.377 29.637s-6.975 22.006-18.377 29.637C259.725 190.765 243.95 195.5 226.5 195.5z"/></g></svg>