<svg width="53" height="53" viewBox="0 0 53 53" fill="none" xmlns="http://www.w3.org/2000/svg">
<path d="M14.0354 19.9754V33.0433L26.6677 39.7924M14.0354 19.9754L26.6677 26.4752M14.0354 19.9754L18.9932 17.3976M26.6677 39.7924L39.1641 32.6769V19.9754M26.6677 39.7924V26.4752M39.1641 19.9754L26.6677 13.4072L22.1173 15.7732M39.1641 19.9754L34.478 22.4128M26.6677 26.4752L31.2859 24.0731M18.9932 17.3976L31.2859 24.0731M18.9932 17.3976L22.1173 15.7732M31.2859 24.0731L34.478 22.4128M31.2859 24.0731V27.0909L33.1197 24.7647L34.478 25.5857V22.4128M22.1173 15.7732L34.478 22.4128" stroke="#8A8A8A" stroke-width="0.888171"/>
<circle cx="26.6" cy="26.6002" r="25.3129" stroke="#8A8A8A" stroke-width="0.888171"/>
</svg>
