<svg width="50" height="49" viewBox="0 0 50 49" fill="none" xmlns="http://www.w3.org/2000/svg">
<path d="M17.8643 26.5981V34.6367L25.3707 38.7883M17.8643 26.5981L25.3707 30.5963M17.8643 26.5981L20.8103 25.0123M25.3707 38.7883L32.7964 34.4113V26.5981M25.3707 38.7883V30.5963M32.7964 26.5981L25.0057 22.8823L22.6668 24.0131M32.7964 26.5981L30.0118 28.0974M25.3707 30.5963L28.115 29.1187M20.8103 25.0123L28.115 29.1187M20.8103 25.0123L22.6668 24.0131M28.115 29.1187L30.0118 28.0974M28.115 29.1187V30.9751L29.2046 29.5442L30.0118 30.0492V28.0974M22.6668 24.0131L30.0118 28.0974" stroke="#8A8A8A" stroke-width="0.83309"/>
<path d="M10.7229 15.5628V22.9584L17.903 26.7779M10.7229 15.5628L17.903 19.2412M10.7229 15.5628L13.5409 14.104M17.903 26.7779L25.0058 22.751V15.5628M17.903 26.7779V19.2412M25.0058 15.5628L17.903 11.8457L15.3166 13.1847M25.0058 15.5628L22.3423 16.9422M17.903 19.2412L20.5279 17.8818M13.5409 14.104L20.5279 17.8818M13.5409 14.104L15.3166 13.1847M20.5279 17.8818L22.3423 16.9422M20.5279 17.8818V19.5897L21.5702 18.2732L22.3423 18.7379V16.9422M15.3166 13.1847L22.3423 16.9422" stroke="#8A8A8A" stroke-width="0.83309"/>
<path d="M39.6133 15.5628V22.9584L32.4718 26.4533M39.6133 15.5628L32.4332 19.2412M39.6133 15.5628L36.7953 14.104M32.4718 26.4533L25.0057 22.8825V15.5628M32.4718 26.4533L32.4332 19.2412M25.0057 15.5628L32.4332 11.8457L35.0196 13.1847M25.0057 15.5628L27.9939 16.9422M32.4332 19.2412L29.8082 17.8818M36.7953 14.104L29.8082 17.8818M36.7953 14.104L35.0196 13.1847M29.8082 17.8818L27.9939 16.9422M29.8082 17.8818V19.5897L28.766 18.2732L27.9939 18.7379V16.9422M35.0196 13.1847L27.9939 16.9422" stroke="#8A8A8A" stroke-width="0.83309"/>
<circle cx="25.144" cy="24.2314" r="23.7431" stroke="#8A8A8A" stroke-width="0.83309"/>
</svg>
